<?xml version="1.0" encoding="utf-8"?>
<!-- Generator: Adobe Illustrator 23.0.3, SVG Export Plug-In . SVG Version: 6.00 Build 0)  -->
<svg version="1.1" id="Layer_1" xmlns="http://www.w3.org/2000/svg" xmlns:xlink="http://www.w3.org/1999/xlink" x="0px" y="0px"
	 viewBox="0 0 149.47021 28.3" enable-background="new 0 0 149.47021 28.3" xml:space="preserve">
<g id="Tools_Logo-Copy" transform="translate(200.000000, 272.000000)">
	<g id="HubSpot_Logo">
		<polygon id="Shape" fill="#FFFFFF" points="-189.2,-259.29999 -196.5,-259.29999 -196.5,-267.29999 -200,-267.29999 -200,-248.2 
			-196.5,-248.2 -196.5,-256 -189.2,-256 -189.2,-248.2 -185.7,-248.2 -185.7,-267.29999 -189.2,-267.29999 		"/>
		<path fill="#FFFFFF" d="M-174.5-254.39999c0,1.59999-1.3,2.89999-2.89999,2.89999c-1.60001,0-2.90001-1.3-2.90001-2.89999
			v-8.20001h-3.3v8.20001c0,3.39999,2.8,6.2,6.20001,6.2c3.39999,0,6.2-2.8,6.2-6.2v-8.20001h-3.3V-254.39999z"/>
		<path fill="#FFFFFF" d="M-150-261.70001c0-1.69998,1.10001-2.19998,2.3-2.19998c1,0,2.3,0.69998,3.09999,1.60001l2.20001-2.60001
			c-1.10001-1.5-3.3-2.5-5.10001-2.5c-3.60001,0-6.2,2.10001-6.2,5.60001C-153.7-255.3-145.8-257.39999-145.8-253.8
			c0,1.10001-1.09999,2.10001-2.3,2.10001c-2,0-2.59999-1-3.5-2L-154-251.10001c1.5,1.90001,3.39999,2.8,5.7,2.8
			c3.40001,0,6.2-2.09999,6.2-5.5C-142.10001-260.79999-150-258.60001-150-261.70001z"/>
		<path fill="#FFFFFF" d="M-103.7-253.39999v-5.70001h3V-262h-3v-3.89999l-3.3,1.5v11.7c0,3,2.1,4.5,4.9,4.5c0.4,0,1,0,1.3-0.10001
			l0.8-3c-0.4,0-0.8,0.10001-1.2,0.10001C-103.1-251.3-103.7-252.10001-103.7-253.39999z"/>
		<path fill="#FFFFFF" d="M-161.89999-262.5c-1.60001,0-2.8,0.5-3.90001,1.60001v-6.30002h-3.3v11.60001
			c0,4.40001,3.20001,7.3,6.70001,7.3c3.89999,0,7.39999-3,7.39999-7.09999C-155.10001-259.39999-158.2-262.5-161.89999-262.5z
			 M-162-251.5c-2.10001,0-3.8-1.7-3.8-3.8c0-2.09999,1.7-3.8,3.8-3.8s3.8,1.70001,3.8,3.8C-158.2-253.2-159.89999-251.5-162-251.5z
			"/>
		<path fill="#FFFFFF" d="M-126-255.5c0-4.10001-3.5-7.10001-7.39999-7.10001c-3.5,0-6.70001,3-6.70001,7.3V-243.7h3.3v-6.3
			c1.10001,1.10001,2.2,1.60001,3.90001,1.60001C-129.2-248.39999-126-251.5-126-255.5z M-132.89999-251.8
			c-2.10001,0-3.8-1.7-3.8-3.8s1.7-3.79999,3.8-3.79999c2.09999,0,3.79999,1.69998,3.79999,3.79999S-130.8-251.8-132.89999-251.8z"
			/>
		<path fill="#FF7A59" d="M-115.3-262.79999v-3.30002c0.9-0.39999,1.5-1.29999,1.5-2.29999V-268.5
			c0-1.39999-1.2-2.60001-2.6-2.60001h-0.1c-1.4,0-2.6,1.20001-2.6,2.60001v0.10001c0,1,0.6,1.89999,1.5,2.29999v3.30002
			c-1.2,0.19998-2.4,0.69998-3.4,1.5l-9.10001-7.10001C-130-268.60001-130-268.89999-130-269.10001
			c0-1.60001-1.3-2.89999-2.89999-2.89999c-1.60001,0-2.90001,1.29999-2.90001,2.89999s1.3,2.89999,2.90001,2.89999
			c0.5,0,1-0.09998,1.39999-0.39999l9,7c-0.8,1.20001-1.2,2.5-1.2,4c0,1.60001,0.5,3,1.3,4.20001l-2.7,2.7
			c-0.2-0.10001-0.4-0.10001-0.7-0.10001c-1.3,0-2.39999,1.10001-2.39999,2.40001C-128.2-245.10001-127.1-244-125.8-244
			c1.3,0,2.4-1.10001,2.4-2.39999c0-0.20001,0-0.5-0.1-0.70001l2.7-2.7c1.2,0.90001,2.8,1.5,4.4,1.5c4,0,7.3-3.3,7.3-7.3
			C-109.1-259.20001-111.8-262.29999-115.3-262.79999z M-116.4-251.89999c-2.1,0-3.7-1.70001-3.7-3.70001
			c0-2.10001,1.7-3.69998,3.7-3.69998c2.1,0,3.7,1.69998,3.7,3.69998C-112.7-253.5-114.3-251.89999-116.4-251.89999z"/>
	</g>
	<g id="Group" transform="translate(106.000000, 4.000000)">
		<path fill="#FFFFFF" d="M-183.3764-263.375c-0.17676-0.18994-0.38965-0.33984-0.63965-0.44971s-0.52539-0.16504-0.8252-0.16504
			s-0.57324,0.05518-0.82031,0.16504c-0.24609,0.10986-0.45996,0.25977-0.63965,0.44971
			c-0.17969,0.19043-0.31836,0.41846-0.41504,0.68506c-0.09668,0.26709-0.14453,0.55371-0.14453,0.86035
			c0,0.31982,0.0498,0.61475,0.14941,0.88428c0.10059,0.27051,0.23828,0.50195,0.41504,0.69531s0.38867,0.34473,0.63477,0.45508
			c0.24707,0.11035,0.52051,0.16504,0.82031,0.16504s0.57324-0.05469,0.82031-0.16504
			c0.24608-0.11035,0.45996-0.26172,0.63965-0.45508s0.32031-0.4248,0.41992-0.69531
			c0.10059-0.26953,0.15039-0.56445,0.15039-0.88428c0-0.30664-0.0498-0.59326-0.15039-0.86035
			C-183.06097-262.95654-183.19965-263.18457-183.3764-263.375z"/>
		<path fill="#FFFFFF" d="M-159.52979-271.80182h-36.50769c-1.65002,0-3,1.34998-3,3v14.05367c0,1.64995,1.34998,3,3,3h36.50769
			c1.65002,0,3-1.35005,3-3v-14.05367C-156.52979-270.45184-157.87976-271.80182-159.52979-271.80182z M-189.16254-263.87988h-2
			v5.62012h-1.70996v-5.62012h-2v-1.45996h5.70996V-263.87988z M-181.27094-260.29492
			c-0.19336,0.46289-0.46191,0.86035-0.80566,1.18945c-0.34277,0.33008-0.75098,0.58594-1.22461,0.76562
			s-0.98633,0.26953-1.54004,0.26953s-1.06543-0.08984-1.53516-0.26953c-0.46974-0.17969-0.87695-0.43555-1.21974-0.76562
			c-0.34375-0.3291-0.61229-0.72656-0.80469-1.18945c-0.19434-0.46289-0.29004-0.97461-0.29004-1.53467
			c0-0.56689,0.0957-1.07861,0.29004-1.53516c0.19238-0.45654,0.46094-0.84521,0.80469-1.16504
			c0.34277-0.31982,0.75-0.56641,1.21974-0.73975c0.46973-0.17334,0.98145-0.26025,1.53516-0.26025s1.06641,0.08691,1.54004,0.26025
			s0.88184,0.41992,1.22461,0.73975c0.34375,0.31982,0.6123,0.7085,0.80566,1.16504s0.29004,0.96826,0.29004,1.53516
			C-180.9809-261.26953-181.07758-260.75781-181.27094-260.29492z M-172.67816-260.29492
			c-0.19336,0.46289-0.46191,0.86035-0.80566,1.18945c-0.34276,0.33008-0.75098,0.58594-1.22461,0.76562
			s-0.98633,0.26953-1.54004,0.26953s-1.06543-0.08984-1.53516-0.26953s-0.87695-0.43555-1.21973-0.76562
			c-0.34375-0.3291-0.6123-0.72656-0.80469-1.18945c-0.19435-0.46289-0.29004-0.97461-0.29004-1.53467
			c0-0.56689,0.09569-1.07861,0.29004-1.53516c0.19238-0.45654,0.46094-0.84521,0.80469-1.16504
			c0.34277-0.31982,0.75-0.56641,1.21973-0.73975s0.98145-0.26025,1.53516-0.26025s1.06641,0.08691,1.54004,0.26025
			s0.88185,0.41992,1.22461,0.73975c0.34375,0.31982,0.6123,0.7085,0.80566,1.16504s0.29004,0.96826,0.29004,1.53516
			C-172.38812-261.26953-172.4848-260.75781-172.67816-260.29492z M-166.68793-258.25977h-4.45996v-7.08008h1.71973v5.58984h2.74023
			V-258.25977z M-163.95941-263.09961c0.0498,0.08008,0.12305,0.1499,0.21973,0.20996s0.21191,0.11475,0.3457,0.16504
			c0.13281,0.0498,0.2832,0.10156,0.44922,0.15479c0.24023,0.08011,0.49023,0.16849,0.75,0.26517
			c0.26074,0.09668,0.49707,0.2251,0.70996,0.38477c0.21387,0.16016,0.39062,0.3584,0.53027,0.59521
			c0.14062,0.23682,0.20996,0.53174,0.20996,0.88428c0,0.40723-0.0752,0.75879-0.22461,1.05563
			c-0.15039,0.29691-0.35156,0.54105-0.60547,0.73441c-0.25293,0.19336-0.54297,0.33691-0.87012,0.43066
			c-0.32617,0.09274-0.6631,0.13965-1.00978,0.13965c-0.50684,0-0.99608-0.08789-1.46973-0.26465
			c-0.47365-0.17679-0.86719-0.42871-1.17969-0.75488l1.11914-1.14062c0.17383,0.21387,0.40233,0.3916,0.68555,0.53516
			s0.56445,0.21484,0.84473,0.21484c0.12695,0,0.25-0.0127,0.37013-0.04004c0.12012-0.02637,0.22461-0.06934,0.31543-0.12988
			c0.08983-0.05957,0.16112-0.13965,0.21483-0.24023c0.05273-0.09961,0.08008-0.21973,0.08008-0.35938
			c0-0.13379-0.03418-0.24707-0.10059-0.33984c-0.06641-0.09375-0.16113-0.17871-0.28516-0.25586
			c-0.12305-0.07617-0.27637-0.146-0.45996-0.20947c-0.18262-0.06299-0.3916-0.13135-0.625-0.20459
			c-0.22656-0.07373-0.44824-0.16016-0.66504-0.26025c-0.21582-0.1001-0.40918-0.22803-0.5791-0.38477
			c-0.1709-0.15674-0.30762-0.34668-0.41016-0.57031c-0.10353-0.22314-0.15527-0.49512-0.15527-0.81494
			c0-0.39307,0.08008-0.72998,0.24023-1.00977c0.16016-0.28027,0.37012-0.51025,0.62987-0.69043
			c0.25978-0.17969,0.55273-0.31152,0.87988-0.39453c0.32617-0.0835,0.65625-0.125,0.99023-0.125
			c0.39941,0,0.80762,0.07324,1.22461,0.21973c0.41699,0.14697,0.78125,0.36328,1.09473,0.6499l-1.08984,1.1499
			c-0.14647-0.18652-0.33789-0.33496-0.5752-0.44482c-0.23633-0.10986-0.46484-0.16504-0.68457-0.16504
			c-0.11328,0-0.22852,0.01025-0.34473,0.03027c-0.11719,0.02002-0.22168,0.05811-0.31543,0.11475
			c-0.09277,0.05664-0.17188,0.12988-0.23438,0.22021c-0.06348,0.08984-0.0957,0.20508-0.0957,0.34473
			C-164.03461-263.27979-164.00922-263.17969-163.95941-263.09961z"/>
		<path fill="#FFFFFF" d="M-174.78363-263.375c-0.17676-0.18994-0.38965-0.33984-0.63965-0.44971s-0.52539-0.16504-0.8252-0.16504
			c-0.29982,0-0.57324,0.05518-0.82031,0.16504c-0.24609,0.10986-0.45996,0.25977-0.63965,0.44971
			c-0.17969,0.19043-0.31836,0.41846-0.41504,0.68506c-0.09668,0.26709-0.14453,0.55371-0.14453,0.86035
			c0,0.31982,0.04979,0.61475,0.1494,0.88428c0.1006,0.27051,0.23828,0.50195,0.41505,0.69531
			c0.17676,0.19336,0.38866,0.34473,0.63477,0.45508c0.24707,0.11035,0.52051,0.16504,0.82031,0.16504
			c0.29979,0,0.57324-0.05469,0.82031-0.16504c0.24608-0.11035,0.45995-0.26172,0.63965-0.45508
			c0.17969-0.19336,0.3203-0.4248,0.41991-0.69531c0.1006-0.26953,0.15039-0.56445,0.15039-0.88428
			c0-0.30664-0.04979-0.59326-0.15039-0.86035C-174.4682-262.95654-174.60687-263.18457-174.78363-263.375z"/>
	</g>
</g>
</svg>
