<?xml version="1.0" encoding="utf-8"?>
<!-- Generator: Adobe Illustrator 23.0.3, SVG Export Plug-In . SVG Version: 6.00 Build 0)  -->
<svg version="1.1" id="Layer_1" xmlns="http://www.w3.org/2000/svg" xmlns:xlink="http://www.w3.org/1999/xlink" x="0px" y="0px"
	 viewBox="0 0 20 20" enable-background="new 0 0 20 20" xml:space="preserve">
<path fill-rule="evenodd" clip-rule="evenodd" fill="#FFFFFF" d="M18.33333,17.29167c0,0.57431-0.45488,1.04167-1.01385,1.04167
	H7.68051c-0.55897,0-1.01385-0.46736-1.01385-1.04167V6.875c0-0.57431,0.45488-1.04167,1.01385-1.04167h9.63897
	c0.55897,0,1.01385,0.46736,1.01385,1.04167V17.29167z M17.09815,4.16667C18.69804,4.16667,20,5.49865,20,7.13542v9.89583
	C20,18.66802,18.69804,20,17.09815,20H7.90185C6.30196,20,5,18.66802,5,17.03125V7.13542c0-1.63677,1.30196-2.96875,2.90185-2.96875
	H17.09815z M12.31884,2.30903c0-0.18142-0.13859-0.32986-0.30797-0.32986H2.1558c-0.16938,0-0.30797,0.14844-0.30797,0.32986
	v11.21528c0,0.18142,0.13859,0.32986,0.30797,0.32986c0.51,0,0.92391,0.44333,0.92391,0.98958S2.6658,15.83333,2.1558,15.83333
	C0.96703,15.83333,0,14.79757,0,13.52431V2.30903C0,1.03576,0.96703,0,2.1558,0h9.85507c1.18877,0,2.1558,1.03576,2.1558,2.30903
	c0,0.54625-0.41391,0.98958-0.92391,0.98958C12.73275,3.29861,12.31884,2.85528,12.31884,2.30903z M16.22424,11.71355
	c-0.26897-0.10244-0.56874-0.03456-0.76858,0.17959l-2.78399,3.17577c-0.08233,0.08825-0.21744,0.09874-0.28154,0.05431
	l-1.36874-1.49593c-0.15083-0.11479-0.3381-0.16231-0.52538-0.13577c-0.1879,0.02715-0.35318,0.1259-0.45248,0.2629l-1.5623,1.81129
	c-0.16465,0.20674-0.19419,0.48198-0.07667,0.71834c0.11689,0.23636,0.35633,0.38262,0.62404,0.38262h6.94428
	c0.38272,0,0.6938-0.30548,0.6938-0.68131v-3.63677C16.66667,12.06532,16.49322,11.816,16.22424,11.71355 M9.58333,10
	c0.69,0,1.25-0.56,1.25-1.25s-0.56-1.25-1.25-1.25c-0.69,0-1.25,0.56-1.25,1.25S8.89333,10,9.58333,10"/>
</svg>
