<?xml version="1.0" encoding="utf-8"?>
<!-- Generator: Adobe Illustrator 23.0.3, SVG Export Plug-In . SVG Version: 6.00 Build 0)  -->
<svg version="1.1" id="Layer_1" xmlns="http://www.w3.org/2000/svg" xmlns:xlink="http://www.w3.org/1999/xlink" x="0px" y="0px"
	 viewBox="0 0 20 20" enable-background="new 0 0 20 20" xml:space="preserve">
<path fill-rule="evenodd" clip-rule="evenodd" fill="#FFFFFF" d="M6.459,10.62519L16.46587,0.61833
	c0.81489-0.81489,2.11995-0.80907,2.92849-0.00053c0.81417,0.81417,0.8083,2.11966-0.00053,2.92849L9.38696,13.55315L6.459,10.62519
	z M8.33951,14.89268c-0.28993,0.28993-0.75308,0.29684-1.04874,0.00118l-2.12439-2.12439
	c-0.28928-0.28928-0.29077-0.7568,0.00118-1.04875c0.28993-0.28993,0.75308-0.29684,1.04874-0.00118l2.12439,2.12439
	C8.62997,14.13321,8.63146,14.60073,8.33951,14.89268z M0.41057,18.58456c0.04951-0.02497,0.1854-0.13675,0.34232-0.36569
	c0.23589-0.34416,0.40474-0.81618,0.46562-1.44756c0.22649-2.34879,2.09177-3.73939,3.78258-2.57202
	c1.72777,1.1929,1.97146,3.36934-0.04819,4.54532c-0.33757,0.19656-0.70403,0.37044-1.09498,0.52381
	c-0.66979,0.26275-1.37998,0.4545-2.08912,0.58816c-0.42613,0.08031-0.76127,0.12397-0.96218,0.14136
	C-0.00861,20.0685-0.32104,18.95356,0.41057,18.58456z"/>
</svg>
